<?xml version="1.0" encoding="utf-8"?>
<!-- Generator: Adobe Illustrator 22.1.0, SVG Export Plug-In . SVG Version: 6.00 Build 0)  -->
<svg version="1.1" id="图层_1" xmlns="http://www.w3.org/2000/svg" xmlns:xlink="http://www.w3.org/1999/xlink" x="0px" y="0px"
	 viewBox="0 0 16 16" style="enable-background:new 0 0 16 16;" xml:space="preserve">
<style type="text/css">
	.st0{fill:none;stroke:#000000;stroke-width:0.5;}
</style>
<g id="Page-1" transform="translate(0.749311, 0.000000)">
	<path id="Stroke-1" class="st0" d="M14.3,8.6c0.2,0.1,0.1,0.2-0.2,0.3C14,8.9,14,9,14,9c0,0.2,0,0.3-0.4,0.3
		c-0.2,0-0.2,0.1-0.2,0.1c0,0.2-0.2,0.2-0.6,0.3c-0.2,0-0.3,0.1-0.3,0.1c-0.1,0.1-0.3,0.2-0.8,0.2c-0.2,0-0.3,0-0.4,0.1
		c-0.2,0.1-0.5,0.2-0.9,0.2c-0.2,0-0.3,0-0.4,0.1c-0.2,0.1-0.6,0.2-1,0.1c-0.2,0-0.3,0-0.4,0c-0.3,0.1-0.7,0.1-1,0
		c-0.1,0-0.3,0-0.5,0c-0.4,0.1-0.7,0.1-1,0c-0.1,0-0.3-0.1-0.4,0c-0.4,0.1-0.8,0-1-0.1c-0.1,0-0.3-0.1-0.4-0.1c-0.4,0-0.7,0-0.9-0.2
		c-0.1-0.1-0.2-0.1-0.4-0.1c-0.5,0-0.7-0.1-0.8-0.2c0-0.1-0.1-0.1-0.3-0.1c-0.4,0-0.6-0.1-0.6-0.3c0-0.1-0.1-0.1-0.2-0.1
		C0.5,9.3,0.4,9.2,0.5,9.1c0-0.1,0-0.1-0.1-0.1C0,8.9-0.1,8.7,0.2,8.6c0.1,0,0.1-0.1,0-0.1c-0.3-0.1-0.3-0.2,0-0.3
		c0.1,0,0.1-0.1,0-0.2C-0.1,7.8,0,7.7,0.4,7.6c0.1,0,0.2-0.1,0.1-0.1c-0.1-0.1,0-0.3,0.4-0.3c0.2,0,0.2-0.1,0.2-0.1
		c0-0.2,0.2-0.2,0.6-0.3c0.2,0,0.3-0.1,0.3-0.1c0.1-0.1,0.3-0.2,0.8-0.2c0.2,0,0.3,0,0.4-0.1c0.2-0.1,0.5-0.2,0.9-0.2
		c0.2,0,0.3,0,0.4-0.1c0.2-0.1,0.6-0.2,1-0.1c0.2,0,0.3,0,0.4,0c0.3-0.1,0.7-0.1,1,0c0.1,0,0.3,0,0.5,0c0.4-0.1,0.7-0.1,1,0
		C8.6,6,8.8,6,9,5.9c0.4-0.1,0.7,0,1,0.1c0.1,0,0.3,0.1,0.4,0.1c0.4,0,0.7,0,0.9,0.2c0.1,0.1,0.2,0.1,0.4,0.1c0.5,0,0.7,0.1,0.8,0.2
		c0,0.1,0.2,0.1,0.3,0.1c0.3,0,0.5,0.1,0.6,0.3c0,0.1,0.1,0.1,0.2,0.1c0.3,0,0.5,0.2,0.4,0.3c0,0.1,0,0.1,0.1,0.1
		c0.3,0,0.4,0.2,0.2,0.3c-0.1,0-0.1,0.1,0,0.1c0.3,0.1,0.3,0.2,0,0.3C14.3,8.4,14.3,8.5,14.3,8.6z"/>
	<path id="Fill-3" d="M6.7,3.3C7,3.2,7.2,3,7.2,2.6c0-0.3-0.4-0.4-0.8-0.3C5.4,2.6,5.2,3.6,5.1,4.5C5,4.8,5,5.1,5,5.4
		c-0.3,2-0.5,4.3-0.4,6.1c0,0.4,0.1,0.8-0.2,1.2c-0.5,0.1-0.4-0.3-0.9-0.1c-0.7,0.2-0.6,1.2,0,1.1c0.2,0,0.3-0.1,0.5-0.1
		c0.9-0.5,1.1-1.6,1.2-2.8c0.3-2.2,0.4-4.3,0.4-6.3c0,0,0,0,0,0c0-0.4-0.1-1,0.2-1.1C6.1,3.1,6.3,3.4,6.7,3.3"/>
	<g id="Group-7" transform="translate(14.049148, 0.230943)">
		<path id="Fill-5" d="M-3.8,2.1C-4.7,2.4-5,3.4-5.1,4.4c0,0.3-0.1,0.5-0.1,0.8c-0.3,2-0.5,4.3-0.4,6.1c0,0.4,0.1,0.8-0.2,1.2
			c-0.5,0.1-0.4-0.3-0.9-0.1c-0.7,0.3-0.6,1.2,0,1.1c0.2,0,0.3-0.1,0.5-0.1c0.9-0.5,1.1-1.6,1.2-2.8c0.3-2.2,0.4-4.3,0.4-6.3
			c0,0,0,0,0,0c0-0.4-0.1-1,0.2-1.1C-4,3-3.8,3.3-3.4,3.1C-3.2,3-2.9,2.8-3,2.4C-3,2.1-3.4,2-3.8,2.1"/>
	</g>
</g>
<g id="Page-1_1_" transform="translate(0.749311, 0.000000)">
	<path id="Stroke-1_1_" class="st0" d="M14.3,8.6c0.2,0.1,0.1,0.2-0.2,0.3C14,8.9,14,9,14,9c0,0.2,0,0.3-0.4,0.3
		c-0.2,0-0.2,0.1-0.2,0.1c0,0.2-0.2,0.2-0.6,0.3c-0.2,0-0.3,0.1-0.3,0.1c-0.1,0.1-0.3,0.2-0.8,0.2c-0.2,0-0.3,0-0.4,0.1
		c-0.2,0.1-0.5,0.2-0.9,0.2c-0.2,0-0.3,0-0.4,0.1c-0.2,0.1-0.6,0.2-1,0.1c-0.2,0-0.3,0-0.4,0c-0.3,0.1-0.7,0.1-1,0
		c-0.1,0-0.3,0-0.5,0c-0.4,0.1-0.7,0.1-1,0c-0.1,0-0.3-0.1-0.4,0c-0.4,0.1-0.8,0-1-0.1c-0.1,0-0.3-0.1-0.4-0.1c-0.4,0-0.7,0-0.9-0.2
		c-0.1-0.1-0.2-0.1-0.4-0.1c-0.5,0-0.7-0.1-0.8-0.2c0-0.1-0.1-0.1-0.3-0.1c-0.4,0-0.6-0.1-0.6-0.3c0-0.1-0.1-0.1-0.2-0.1
		C0.5,9.3,0.4,9.2,0.5,9.1c0-0.1,0-0.1-0.1-0.1C0,8.9-0.1,8.7,0.2,8.6c0.1,0,0.1-0.1,0-0.1c-0.3-0.1-0.3-0.2,0-0.3
		c0.1,0,0.1-0.1,0-0.2C-0.1,7.8,0,7.7,0.4,7.6c0.1,0,0.2-0.1,0.1-0.1c-0.1-0.1,0-0.3,0.4-0.3c0.2,0,0.2-0.1,0.2-0.1
		c0-0.2,0.2-0.2,0.6-0.3c0.2,0,0.3-0.1,0.3-0.1c0.1-0.1,0.3-0.2,0.8-0.2c0.2,0,0.3,0,0.4-0.1c0.2-0.1,0.5-0.2,0.9-0.2
		c0.2,0,0.3,0,0.4-0.1c0.2-0.1,0.6-0.2,1-0.1c0.2,0,0.3,0,0.4,0c0.3-0.1,0.7-0.1,1,0c0.1,0,0.3,0,0.5,0c0.4-0.1,0.7-0.1,1,0
		C8.6,6,8.8,6,9,5.9c0.4-0.1,0.7,0,1,0.1c0.1,0,0.3,0.1,0.4,0.1c0.4,0,0.7,0,0.9,0.2c0.1,0.1,0.2,0.1,0.4,0.1c0.5,0,0.7,0.1,0.8,0.2
		c0,0.1,0.2,0.1,0.3,0.1c0.3,0,0.5,0.1,0.6,0.3c0,0.1,0.1,0.1,0.2,0.1c0.3,0,0.5,0.2,0.4,0.3c0,0.1,0,0.1,0.1,0.1
		c0.3,0,0.4,0.2,0.2,0.3c-0.1,0-0.1,0.1,0,0.1c0.3,0.1,0.3,0.2,0,0.3C14.3,8.4,14.3,8.5,14.3,8.6z"/>
	<path id="Fill-3_1_" d="M6.7,3.3C7,3.2,7.2,3,7.2,2.6c0-0.3-0.4-0.4-0.8-0.3C5.4,2.6,5.2,3.6,5.1,4.5C5,4.8,5,5.1,5,5.4
		c-0.3,2-0.5,4.3-0.4,6.1c0,0.4,0.1,0.8-0.2,1.2c-0.5,0.1-0.4-0.3-0.9-0.1c-0.7,0.2-0.6,1.2,0,1.1c0.2,0,0.3-0.1,0.5-0.1
		c0.9-0.5,1.1-1.6,1.2-2.8c0.3-2.2,0.4-4.3,0.4-6.3c0,0,0,0,0,0c0-0.4-0.1-1,0.2-1.1C6.1,3.1,6.3,3.4,6.7,3.3"/>
	<g id="Group-7_1_" transform="translate(14.049148, 0.230943)">
		<path id="Fill-5_1_" d="M-3.8,2.1C-4.7,2.4-5,3.4-5.1,4.4c0,0.3-0.1,0.5-0.1,0.8c-0.3,2-0.5,4.3-0.4,6.1c0,0.4,0.1,0.8-0.2,1.2
			c-0.5,0.1-0.4-0.3-0.9-0.1c-0.7,0.3-0.6,1.2,0,1.1c0.2,0,0.3-0.1,0.5-0.1c0.9-0.5,1.1-1.6,1.2-2.8c0.3-2.2,0.4-4.3,0.4-6.3
			c0,0,0,0,0,0c0-0.4-0.1-1,0.2-1.1C-4,3-3.8,3.3-3.4,3.1C-3.2,3-2.9,2.8-3,2.4C-3,2.1-3.4,2-3.8,2.1"/>
	</g>
</g>
</svg>
